<?xml version="1.0" standalone="no"?>
<!DOCTYPE svg PUBLIC "-//W3C//DTD SVG 20010904//EN"
 "http://www.w3.org/TR/2001/REC-SVG-20010904/DTD/svg10.dtd">
<svg version="1.0" xmlns="http://www.w3.org/2000/svg"
 width="240.000000pt" height="334.000000pt" viewBox="0 0 240.000000 334.000000"
 preserveAspectRatio="xMidYMid meet">

<g transform="translate(0.000000,334.000000) scale(0.100000,-0.100000)"
fill="#000000" stroke="none">
<path d="M87 3190 c-11 -25 -14 -681 -2 -662 6 10 11 134 13 297 4 298 1 389
-11 365z"/>
<path d="M217 3085 c-4 -66 -7 -228 -7 -360 1 -146 -3 -252 -9 -268 -6 -16
-35 -53 -63 -84 l-53 -55 -6 -147 c-3 -80 -9 -154 -14 -164 -4 -10 -19 -23
-33 -28 -29 -11 -23 -24 8 -14 44 14 54 48 60 207 l5 150 42 36 c75 65 77 74
81 442 4 365 1 463 -11 285z"/>
<path d="M150 2847 l0 -342 -24 -36 c-16 -24 -37 -39 -65 -47 -52 -16 -68 -38
-20 -28 47 9 80 35 104 82 18 36 20 63 23 377 3 240 1 337 -7 337 -8 0 -11
-100 -11 -343z"/>
<path d="M278 2813 l-3 -378 -29 -60 c-27 -57 -29 -69 -35 -230 -4 -113 -11
-178 -20 -195 -12 -23 -12 -24 4 -9 25 25 35 82 35 223 0 115 3 137 25 193 16
40 29 98 35 160 13 129 13 673 1 673 -6 0 -11 -149 -13 -377z"/>
<path d="M350 2820 c-5 -320 -8 -380 -22 -412 -22 -50 -14 -49 12 2 19 38 20
55 18 412 l-3 373 -5 -375z"/>
<path d="M411 2708 c1 -267 5 -456 9 -423 12 94 12 905 0 905 -7 0 -9 -167 -9
-482z"/>
<path d="M635 3169 c-30 -17 -55 -51 -55 -77 0 -37 52 -82 95 -82 76 0 115 98
55 141 -34 24 -71 31 -95 18z m69 -45 c22 -21 20 -47 -5 -70 -19 -17 -23 -17
-47 -3 -32 17 -39 50 -17 73 21 20 49 21 69 0z"/>
<path d="M850 3095 c0 -77 2 -85 19 -85 16 0 20 8 23 43 l3 42 21 -33 21 -33
26 40 c15 23 29 41 31 41 2 0 1 -22 -2 -50 -4 -47 -3 -50 19 -50 24 0 24 1 19
82 -6 97 -23 113 -60 54 -12 -20 -25 -36 -30 -36 -5 0 -18 16 -30 35 -13 20
-30 35 -41 35 -17 0 -19 -8 -19 -85z"/>
<path d="M1072 3116 c5 -77 25 -106 73 -106 50 0 75 34 75 102 0 51 -9 68 -35
68 -2 0 -5 -28 -7 -62 -3 -63 -3 -63 -33 -63 -30 0 -30 0 -33 63 -3 55 -5 62
-24 62 -19 0 -20 -5 -16 -64z"/>
<path d="M1260 3095 c0 -69 3 -85 15 -85 10 0 15 10 15 28 0 53 15 57 52 13
56 -65 68 -57 68 44 0 69 -3 85 -15 85 -11 0 -15 -11 -15 -39 0 -22 -4 -42 -8
-45 -5 -3 -24 11 -43 30 -65 68 -69 66 -69 -31z"/>
<path d="M1450 3097 l0 -85 29 -7 c31 -7 88 12 108 36 27 33 26 66 -4 99 -23
25 -38 32 -81 36 l-52 6 0 -85z m91 33 c30 -16 26 -68 -7 -80 -41 -16 -44 -13
-44 40 0 53 10 61 51 40z"/>
<path d="M1672 3164 c-12 -8 -28 -27 -36 -42 -20 -39 1 -86 48 -109 44 -21 77
-9 106 39 27 45 25 64 -9 99 -33 33 -74 38 -109 13z m79 -34 c23 -13 24 -38 3
-68 -21 -30 -59 -29 -80 3 -15 23 -15 27 0 50 17 26 45 32 77 15z"/>
<path d="M18 2998 c-2 -68 -1 -199 2 -293 5 -150 6 -136 8 123 1 160 0 292 -2
292 -3 0 -6 -55 -8 -122z"/>
<path d="M1995 3061 c-8 -58 8 -104 18 -53 4 22 13 31 29 34 45 6 29 68 -17
68 -20 0 -24 -7 -30 -49z m55 14 c0 -8 -9 -15 -20 -15 -11 0 -20 7 -20 15 0 8
9 15 20 15 11 0 20 -7 20 -15z"/>
<path d="M2151 3054 c0 -11 3 -14 6 -6 3 7 2 16 -1 19 -3 4 -6 -2 -5 -13z"/>
<path d="M2072 3019 c1 -13 8 -23 13 -21 15 3 12 35 -3 40 -9 3 -13 -3 -10
-19z"/>
<path d="M2190 2989 c0 -5 5 -7 10 -4 6 3 10 8 10 11 0 2 -4 4 -10 4 -5 0 -10
-5 -10 -11z"/>
<path d="M1940 2971 c5 -11 15 -23 21 -27 6 -3 3 5 -6 20 -20 30 -30 35 -15 7z"/>
<path d="M1113 2964 c-12 -31 47 -46 82 -21 22 17 7 29 -42 34 -24 3 -35 -1
-40 -13z"/>
<path d="M650 2941 c0 -28 -2 -29 -34 -24 -26 4 -38 0 -55 -18 -12 -13 -24
-34 -27 -46 -12 -48 50 -98 93 -75 10 6 24 7 34 1 14 -7 18 -2 22 27 9 57 -4
164 -19 164 -9 0 -14 -11 -14 -29z m-12 -73 c20 -20 14 -47 -12 -54 -14 -3
-30 -3 -35 1 -12 7 -15 48 -4 58 10 11 38 8 51 -5z"/>
<path d="M1300 2950 c0 -13 7 -20 18 -20 24 0 32 8 25 26 -8 22 -43 17 -43 -6z"/>
<path d="M953 2874 c3 -57 10 -89 18 -95 23 -14 25 -11 21 26 l-4 35 42 0 c34
0 41 3 38 18 -2 11 -14 18 -36 20 -24 2 -32 8 -32 23 0 16 7 19 46 19 38 0 45
3 42 18 -3 14 -16 18 -72 20 l-69 3 6 -87z"/>
<path d="M744 2905 c-9 -23 5 -36 32 -29 14 4 24 2 24 -5 0 -6 -7 -11 -15 -11
-48 0 -89 -47 -65 -75 14 -17 56 -20 65 -4 4 6 14 7 24 4 9 -4 26 -9 39 -11
19 -4 22 -2 14 13 -5 10 -12 34 -16 52 -10 54 -32 81 -67 81 -17 0 -32 -6 -35
-15z m64 -87 c-5 -15 -48 -24 -48 -10 0 14 12 22 33 22 10 0 17 -5 15 -12z"/>
<path d="M1175 2900 c-23 -26 -13 -48 30 -66 42 -17 37 -38 -6 -29 -22 5 -29
3 -29 -8 0 -31 68 -37 94 -8 25 27 17 54 -22 70 -37 17 -43 36 -8 27 28 -7 40
2 25 21 -17 19 -63 16 -84 -7z"/>
<path d="M1395 2895 c-14 -13 -25 -36 -25 -50 0 -57 79 -95 126 -61 26 19 11
31 -39 31 -40 0 -42 1 -42 30 0 29 2 30 42 30 50 0 65 12 39 31 -30 22 -74 17
-101 -11z"/>
<path d="M1563 2913 c-26 -10 -13 -33 17 -33 17 0 30 -4 30 -10 0 -5 -8 -10
-18 -10 -29 0 -63 -30 -60 -52 5 -33 32 -45 64 -28 21 12 28 12 31 3 3 -7 15
-13 29 -13 21 0 23 3 14 26 -6 14 -10 38 -10 53 0 47 -53 82 -97 64z m57 -83
c0 -12 -40 -33 -48 -25 -4 4 2 13 12 21 23 16 36 18 36 4z"/>
<path d="M1108 2840 c-3 -61 -1 -70 15 -70 14 0 17 10 17 70 0 54 -3 70 -14
70 -11 0 -15 -18 -18 -70z"/>
<path d="M1306 2894 c-3 -9 -6 -40 -6 -70 0 -47 2 -54 20 -54 18 0 20 7 20 70
0 53 -3 70 -14 70 -8 0 -17 -7 -20 -16z"/>
<path d="M2130 2881 c0 -6 5 -13 10 -16 6 -3 10 -15 10 -25 0 -10 5 -22 10
-25 6 -4 10 10 10 34 0 34 -3 41 -20 41 -11 0 -20 -4 -20 -9z"/>
<path d="M1955 2814 c-13 -14 -29 -40 -35 -58 -10 -32 -10 -32 -69 -28 -37 3
-61 0 -65 -7 -5 -8 5 -10 36 -6 33 3 37 3 18 -4 l-25 -9 26 -1 c57 -2 87 10
92 38 3 15 15 39 27 54 33 41 59 33 90 -30 15 -32 32 -52 43 -52 9 -1 17 -5
17 -11 0 -13 47 -13 55 -1 3 5 -5 12 -17 15 -13 3 -1 3 25 2 32 -3 45 0 39 6
-6 6 -35 8 -66 6 -53 -3 -56 -2 -68 26 -17 43 -57 86 -79 86 -11 0 -31 -12
-44 -26z"/>
<path d="M477 2713 c-11 -10 -8 -266 3 -283 6 -10 10 35 10 138 0 83 -1 152
-3 152 -2 0 -7 -3 -10 -7z"/>
<path d="M1096 2694 c-5 -14 -4 -15 9 -4 18 15 45 6 45 -15 0 -8 5 -15 10 -15
16 0 12 15 -8 33 -24 22 -48 22 -56 1z"/>
<path d="M1520 2695 c15 -18 21 -19 44 -2 17 12 15 14 -19 15 -31 1 -35 -1
-25 -13z"/>
<path d="M1616 2694 c-3 -9 -6 -29 -6 -45 0 -31 -6 -34 -30 -19 -12 7 -11 12
5 31 l20 22 -31 -18 c-31 -17 -32 -17 -60 2 -41 28 -64 35 -58 18 3 -8 11 -12
17 -9 7 2 24 -7 40 -21 15 -14 27 -23 27 -20 0 3 14 -1 30 -10 l30 -16 -21
-42 c-20 -42 -20 -42 0 -17 11 14 23 33 27 43 3 9 9 17 13 17 4 0 6 14 3 30
-3 20 2 37 13 50 15 17 16 20 3 20 -9 0 -19 -7 -22 -16z"/>
<path d="M820 2696 c0 -2 7 -7 16 -10 8 -3 12 -2 9 4 -6 10 -25 14 -25 6z"/>
<path d="M1399 2683 c-13 -16 -12 -17 4 -4 16 13 21 21 13 21 -2 0 -10 -8 -17
-17z"/>
<path d="M775 2671 c-3 -5 -2 -12 3 -15 5 -3 9 1 9 9 0 17 -3 19 -12 6z"/>
<path d="M800 2671 c0 -6 4 -13 10 -16 6 -3 7 1 4 9 -7 18 -14 21 -14 7z"/>
<path d="M1702 2657 c10 -23 9 -30 -3 -38 -12 -9 -12 -10 1 -6 21 5 23 29 5
52 -14 19 -15 18 -3 -8z"/>
<path d="M1971 2658 c-12 -12 -24 -30 -27 -41 -5 -16 -12 -18 -48 -13 -28 5
-47 2 -60 -7 -19 -14 -18 -16 13 -72 l33 -58 -21 -26 c-60 -73 -54 -101 21
-101 51 0 54 -2 73 -37 31 -57 49 -63 85 -28 16 15 32 37 36 47 4 15 16 18 65
18 55 0 59 2 59 23 0 13 -14 42 -31 65 l-31 42 31 47 c17 25 31 55 31 66 0 17
-6 18 -60 15 -49 -2 -61 0 -66 14 -9 30 -45 68 -64 68 -11 0 -28 -10 -39 -22z
m78 -22 c28 -44 27 -51 -11 -62 -35 -11 -88 1 -88 19 0 22 43 77 60 77 10 0
28 -15 39 -34z m-119 -83 c0 -20 -8 -45 -17 -56 -17 -19 -17 -20 0 -14 13 5
17 1 17 -18 0 -14 -2 -25 -4 -25 -10 0 -75 98 -81 123 -7 26 -6 27 39 27 l46
0 0 -37z m253 20 c-4 -10 -17 -35 -30 -56 -19 -30 -27 -36 -37 -28 -14 12 -29
79 -20 93 3 4 25 8 49 8 38 0 43 -3 38 -17z m-170 -24 c61 -31 77 -48 77 -84
0 -36 -9 -45 -58 -65 -29 -11 -35 -10 -66 11 -19 13 -32 27 -30 31 3 4 5 35 5
68 1 69 6 72 72 39z m71 5 c12 -30 6 -34 -24 -19 -17 9 -28 20 -25 25 10 16
42 12 49 -6z m28 -106 c-9 -9 -12 -7 -12 12 0 19 3 21 12 12 9 -9 9 -15 0 -24z
m-202 -13 c6 -8 13 -29 13 -47 2 -31 0 -33 -37 -36 -56 -5 -64 10 -32 58 29
44 37 48 56 25z m255 -22 c37 -55 34 -65 -22 -61 -47 3 -48 4 -46 36 1 32 17
62 34 62 4 0 20 -17 34 -37z m-191 -18 c22 -17 21 -20 -11 -29 -20 -6 -23 -4
-23 18 0 29 7 32 34 11z m102 -32 c-3 -4 -18 -1 -33 6 l-28 13 30 12 c27 11
30 11 33 -6 2 -11 1 -22 -2 -25z m-37 -4 c17 -6 31 -14 31 -18 0 -11 -50 -81
-59 -81 -12 0 -39 32 -50 61 -8 23 -6 28 12 37 29 14 29 14 66 1z"/>
<path d="M1964 2535 c-10 -8 -14 -14 -9 -14 6 0 19 6 29 14 11 8 15 15 10 15
-6 0 -19 -7 -30 -15z"/>
<path d="M1977 2503 c-11 -11 -8 -48 5 -61 32 -32 79 2 60 43 -11 24 -49 35
-65 18z"/>
<path d="M697 2659 c7 -7 15 -10 18 -7 3 3 -2 9 -12 12 -14 6 -15 5 -6 -5z"/>
<path d="M1190 2660 c-13 -8 -12 -10 3 -10 9 0 17 5 17 10 0 12 -1 12 -20 0z"/>
<path d="M1374 2645 c-10 -26 16 -45 61 -45 40 0 45 -3 62 -37 10 -21 25 -38
33 -39 8 0 10 1 3 3 -6 2 -19 20 -28 40 -17 35 -17 37 1 51 18 13 18 14 -3 8
-17 -6 -22 -2 -26 16 -4 20 -4 19 -6 -5 -1 -27 -3 -28 -43 -25 -37 3 -43 6
-42 26 1 26 -4 28 -12 7z"/>
<path d="M964 2636 c-6 -17 2 -36 17 -36 12 0 12 37 -1 45 -6 3 -13 -1 -16 -9z"/>
<path d="M1260 2640 c0 -13 11 -13 30 0 12 8 11 10 -7 10 -13 0 -23 -4 -23
-10z"/>
<path d="M805 2621 c-3 -5 -2 -12 3 -15 5 -3 9 1 9 9 0 17 -3 19 -12 6z"/>
<path d="M1097 2624 c-11 -11 3 -24 18 -18 8 4 12 10 9 15 -6 11 -18 12 -27 3z"/>
<path d="M678 2613 c7 -3 16 -2 19 1 4 3 -2 6 -13 5 -11 0 -14 -3 -6 -6z"/>
<path d="M1648 2603 c6 -2 18 -2 25 0 6 3 1 5 -13 5 -14 0 -19 -2 -12 -5z"/>
<path d="M1692 2509 c2 -7 10 -15 17 -17 8 -3 12 1 9 9 -2 7 -10 15 -17 17 -8
3 -12 -1 -9 -9z"/>
<path d="M49 2483 c-13 -16 -12 -17 4 -4 9 7 17 15 17 17 0 8 -8 3 -21 -13z"/>
<path d="M985 2485 c-27 -7 -73 -23 -102 -34 -56 -22 -161 -86 -128 -77 11 3
40 10 64 16 51 13 135 5 152 -16 6 -7 9 -21 5 -29 -8 -22 -43 -19 -49 5 -4 16
-10 18 -34 11 -45 -13 -113 -51 -119 -66 -7 -17 25 -67 40 -62 6 2 24 22 39
45 16 23 33 42 39 42 22 0 86 -61 91 -87 3 -16 8 -35 12 -45 9 -24 -32 -35
-48 -13 -18 24 -48 9 -45 -23 2 -20 -3 -27 -25 -33 -47 -13 -141 -106 -153
-151 l-10 -40 -17 26 c-24 35 -78 36 -112 1 -32 -31 -36 -105 -6 -105 10 0 24
7 31 15 7 8 19 15 26 15 12 0 12 -5 -1 -29 -14 -28 -14 -30 5 -36 15 -5 20
-15 20 -40 0 -25 5 -34 23 -40 l22 -8 -24 -4 c-18 -4 -33 5 -66 41 -47 51 -62
56 -68 24 -4 -22 -4 -22 -6 1 0 14 -11 35 -23 48 -16 17 -23 39 -26 84 -4 49
-8 59 -21 57 -30 -6 -44 -75 -44 -213 -1 -143 13 -211 63 -322 66 -144 205
-281 354 -347 83 -37 124 -47 129 -32 8 20 110 38 199 35 64 -2 94 -8 129 -27
l46 -23 54 21 c100 39 182 92 253 164 89 88 140 163 172 252 25 68 54 227 54
297 l0 37 -20 -20 c-11 -11 -24 -20 -30 -20 -5 0 -26 33 -46 73 -20 39 -46 82
-57 95 -15 16 -21 33 -19 57 3 30 0 34 -27 40 -17 4 -36 15 -41 25 -14 25 -13
37 2 22 14 -14 68 -16 68 -3 0 16 -30 41 -49 41 -22 0 -51 -31 -51 -53 0 -25
-17 -20 -48 14 -19 21 -39 32 -68 36 -37 5 -42 2 -68 -31 -29 -39 -55 -45 -80
-20 -27 26 -20 52 17 62 28 8 32 12 29 39 -2 23 2 33 15 36 12 3 8 5 -9 6 -16
0 -28 6 -28 11 0 6 -6 10 -12 9 -26 -3 -39 1 -33 12 4 6 13 8 20 5 8 -3 11 2
8 15 -7 25 22 26 36 2 27 -47 27 -47 64 -24 56 34 58 61 6 61 -31 0 -61 37
-37 44 68 21 148 8 210 -35 l33 -22 -27 29 c-47 50 -176 121 -272 149 -74 21
-108 25 -210 24 -68 0 -143 -6 -171 -14z m219 -25 c71 -16 67 -42 -13 -87 -25
-15 -58 -39 -73 -55 -32 -34 -42 -35 -62 -7 -12 18 -12 25 0 55 14 34 14 34
-21 55 -20 12 -33 24 -30 28 6 5 53 11 145 19 8 1 33 -3 54 -8z m96 -114 c0
-19 -26 -27 -39 -12 -13 15 -4 26 21 26 10 0 18 -6 18 -14z m-4 -178 l19 -23
-25 20 c-14 11 -27 21 -29 22 -2 2 0 3 6 3 5 0 18 -10 29 -22z m142 -132 c40
4 64 0 82 -10 50 -31 96 -50 133 -55 38 -6 39 -7 79 -103 22 -54 51 -108 64
-122 28 -27 27 -34 -28 -124 -26 -42 -38 -74 -38 -99 0 -41 -52 -125 -123
-200 -40 -41 -91 -63 -108 -46 -4 4 -13 47 -18 93 -8 70 -7 91 6 117 13 29 13
39 -5 109 -21 85 -38 105 -45 52 l-4 -33 -1 35 -2 35 -55 -3 c-153 -10 -208
155 -92 276 18 19 44 40 60 48 15 8 27 22 28 32 0 9 3 12 5 5 3 -7 25 -9 62
-7z m-702 -160 c16 -12 17 -17 6 -28 -11 -11 -16 -9 -30 8 -9 12 -24 24 -32
27 -9 3 -4 6 11 6 14 1 34 -5 45 -13z m304 -34 c30 -25 20 -58 -21 -67 -53
-12 -77 27 -39 65 25 25 32 25 60 2z m-213 -104 c39 -17 141 -95 153 -117 5
-10 23 -21 40 -25 46 -9 98 -35 104 -53 4 -8 -2 -29 -13 -47 -11 -17 -23 -48
-27 -70 -6 -33 -12 -41 -45 -54 -32 -12 -43 -25 -63 -68 -14 -30 -37 -65 -52
-79 -26 -24 -27 -34 -9 -77 10 -25 -19 -24 -55 2 -34 24 -58 81 -76 184 -12
68 -19 84 -52 120 -21 23 -47 62 -56 87 -15 40 -16 48 -1 88 8 24 15 51 15 59
0 9 10 26 22 39 24 26 70 30 115 11z m-290 -50 c-3 -7 -5 -2 -5 12 0 14 2 19
5 13 2 -7 2 -19 0 -25z m12 -27 c19 -12 6 -41 -18 -41 -23 0 -35 15 -27 35 6
17 24 19 45 6z m-2 -83 c-3 -8 -6 -5 -6 6 -1 11 2 17 5 13 3 -3 4 -12 1 -19z
m767 -61 c8 -23 6 -31 -12 -49 -18 -19 -25 -20 -47 -10 -28 13 -35 58 -13 80
22 22 62 10 72 -21z m113 -24 c-3 -10 -5 -2 -5 17 0 19 2 27 5 18 2 -10 2 -26
0 -35z m383 7 c0 -16 -48 -108 -60 -115 -16 -10 -12 10 14 70 22 49 46 73 46
45z m-393 -72 c-3 -8 -6 -5 -6 6 -1 11 2 17 5 13 3 -3 4 -12 1 -19z m-771 -35
c21 -27 27 -38 13 -25 -14 12 -30 22 -36 22 -6 0 -13 11 -15 25 -3 14 -4 25
-3 25 2 0 20 -21 41 -47z m694 -192 c-5 -11 -15 -23 -21 -27 -6 -3 -3 5 6 20
20 30 30 35 15 7z m-30 -44 c0 -2 -12 -14 -27 -28 l-28 -24 24 28 c23 25 31
32 31 24z"/>
<path d="M592 2478 c-18 -18 -15 -36 9 -49 29 -15 59 12 43 39 -14 22 -36 26
-52 10z"/>
<path d="M1670 2431 c0 -6 4 -12 9 -15 13 -8 42 4 35 15 -7 12 -44 12 -44 0z"/>
<path d="M354 2180 c0 -107 2 -151 3 -97 2 53 2 141 0 195 -1 53 -3 9 -3 -98z"/>
<path d="M292 2335 c-8 -16 -12 -85 -12 -185 0 -87 -4 -170 -10 -184 -12 -32
-5 -34 12 -3 8 14 14 87 18 207 3 102 5 186 4 188 0 1 -6 -9 -12 -23z"/>
<path d="M22 2285 c-1 -33 -4 -105 -7 -160 -4 -75 -3 -94 5 -76 6 14 9 80 7
160 -1 75 -4 109 -5 76z"/>
<path d="M161 2323 c-5 -10 -11 -90 -14 -178 -2 -88 -7 -171 -11 -185 -5 -21
-4 -20 8 5 11 22 15 68 16 170 0 77 4 155 9 173 10 35 7 42 -8 15z"/>
<path d="M2160 2241 c0 -24 11 -32 28 -22 16 10 5 41 -14 41 -8 0 -14 -9 -14
-19z"/>
<path d="M1857 2244 c-12 -12 -8 -41 7 -53 22 -18 58 4 54 32 -3 22 -45 36
-61 21z"/>
<path d="M2045 2180 c-75 -16 -125 -78 -125 -156 0 -82 53 -143 137 -159 42
-8 117 26 146 67 27 37 34 116 13 156 -32 61 -112 105 -171 92z m109 -36 c95
-65 84 -204 -21 -255 -122 -59 -254 92 -183 209 45 73 134 93 204 46z"/>
<path d="M2000 2100 c-11 -11 -20 -25 -20 -31 0 -6 8 -1 18 11 9 12 33 25 52
30 l35 8 -32 1 c-21 1 -41 -7 -53 -19z"/>
<path d="M2120 2105 c7 -9 15 -13 17 -11 7 7 -7 26 -19 26 -6 0 -6 -6 2 -15z"/>
<path d="M2032 2068 c-7 -7 -12 -26 -12 -43 0 -38 16 -55 50 -55 31 0 60 28
60 57 0 42 -68 71 -98 41z m76 -26 c15 -20 15 -24 -1 -47 -10 -13 -21 -16 -41
-11 -33 8 -42 29 -27 62 9 20 16 24 34 19 12 -4 28 -14 35 -23z"/>
<path d="M2161 2006 c-13 -51 -41 -76 -87 -76 -35 0 -84 33 -84 57 0 9 -3 14
-6 10 -12 -12 9 -48 36 -62 67 -34 131 -9 150 60 7 25 10 48 8 51 -3 2 -11
-15 -17 -40z"/>
<path d="M1956 2031 c-3 -5 1 -11 9 -15 9 -3 15 0 15 9 0 16 -16 20 -24 6z"/>
<path d="M8 1903 c7 -3 16 -2 19 1 4 3 -2 6 -13 5 -11 0 -14 -3 -6 -6z"/>
<path d="M200 1834 c-13 -32 -13 -80 -1 -103 6 -10 13 -42 17 -72 l6 -54 -30
46 c-19 30 -41 50 -63 58 -38 13 -43 10 -35 -23 9 -37 53 -84 91 -98 35 -12
35 -13 35 -73 l0 -60 -19 31 c-26 43 -69 74 -102 74 -23 0 -27 -3 -22 -17 16
-45 56 -84 98 -95 39 -11 44 -15 50 -47 3 -20 9 -45 12 -55 4 -15 -5 -10 -38
17 -33 29 -51 37 -81 37 -45 0 -47 -8 -10 -48 27 -29 84 -52 128 -52 11 0 31
-11 44 -25 13 -14 28 -25 33 -25 6 0 1 10 -11 23 l-22 23 29 17 c31 18 81 72
81 88 0 5 -14 9 -31 9 -23 0 -42 -10 -70 -38 l-38 -39 -11 49 c-13 62 -13 58
8 58 28 0 80 37 97 69 23 45 20 54 -17 47 -39 -8 -55 -20 -78 -65 l-19 -36 -1
60 0 60 46 24 c43 23 63 48 78 99 6 18 4 22 -14 22 -36 0 -59 -19 -85 -68
l-24 -47 0 55 c0 33 5 63 14 74 18 23 18 38 4 89 -12 43 -35 49 -49 11z"/>
<path d="M2080 1801 c-13 -25 -13 -67 1 -92 5 -11 9 -37 7 -57 l-4 -37 -12 30
c-26 62 -38 78 -69 92 -43 18 -44 17 -37 -14 13 -56 33 -81 79 -99 43 -18 45
-21 44 -59 -2 -53 -13 -103 -20 -90 -4 6 -12 27 -19 48 -12 40 -37 60 -84 71
-27 7 -28 5 -22 -20 12 -45 36 -72 82 -91 43 -18 53 -34 35 -62 -8 -13 -15
-13 -53 0 -40 13 -66 14 -78 3 -11 -11 28 -24 73 -24 26 0 47 -3 47 -7 0 -5
-9 -24 -20 -43 l-21 -35 26 28 c14 16 31 48 37 72 10 38 16 44 52 55 54 16 84
37 102 71 19 37 18 49 -3 49 -30 0 -79 -36 -103 -74 -12 -21 -24 -36 -25 -34
-2 2 -1 31 2 66 5 54 8 62 26 62 48 0 116 86 105 135 -3 12 -7 12 -35 -2 -23
-11 -41 -32 -60 -72 -27 -55 -28 -56 -31 -24 -2 17 4 45 12 62 19 36 20 52 4
86 -13 30 -24 32 -38 6z"/>
<path d="M2105 1410 c-25 -6 -27 -8 -12 -15 22 -9 89 3 82 16 -7 10 -26 10
-70 -1z"/>
<path d="M1896 1372 c-3 -6 -1 -14 5 -17 15 -10 25 3 12 16 -7 7 -13 7 -17 1z"/>
<path d="M2164 1345 c-4 -9 -2 -21 4 -27 15 -15 44 -1 40 19 -4 23 -36 29 -44
8z"/>
<path d="M414 1285 c-8 -19 13 -45 31 -39 20 8 28 36 13 46 -20 12 -38 9 -44
-7z"/>
<path d="M1827 1283 c-12 -11 -8 -23 8 -23 8 0 15 7 15 15 0 16 -12 20 -23 8z"/>
<path d="M1947 1253 c-14 -16 -30 -39 -35 -52 -8 -22 -15 -24 -65 -25 -38 -1
-62 -6 -72 -17 -15 -15 -15 -19 0 -55 9 -21 25 -48 36 -60 l21 -22 -36 -52
c-20 -29 -36 -61 -36 -71 0 -29 36 -42 96 -35 52 6 52 6 59 -24 8 -38 57 -80
85 -73 22 6 53 45 64 80 6 20 12 21 55 16 93 -11 114 28 59 111 -26 40 -29 51
-20 65 65 88 68 114 16 131 -19 7 -51 10 -69 8 -30 -3 -36 0 -46 24 -18 43
-48 78 -68 78 -9 0 -29 -12 -44 -27z m92 -45 l20 -42 -32 -14 c-26 -11 -39
-11 -69 -1 -21 7 -38 17 -38 23 0 14 39 79 53 88 18 11 44 -9 66 -54z m-149
-86 c0 -28 -7 -45 -26 -63 l-25 -24 -19 25 c-11 14 -25 38 -31 53 -15 36 -2
47 59 47 l42 0 0 -38z m299 24 c14 -17 -4 -59 -38 -90 -21 -20 -22 -20 -41 0
-10 10 -22 38 -26 62 l-7 42 50 0 c32 0 55 -5 62 -14z m-219 -22 c0 -2 -13
-10 -30 -19 l-30 -16 0 30 c0 29 1 30 30 20 17 -6 30 -13 30 -15z m98 -18 l-3
-26 -30 24 -30 25 25 9 c31 12 43 2 38 -32z m-15 -29 c12 -10 17 -28 17 -60 0
-44 -2 -48 -41 -68 l-42 -21 -41 29 c-36 25 -41 34 -41 68 0 33 5 42 39 66 35
26 40 27 65 14 14 -8 34 -21 44 -28z m-163 -54 c0 -25 -1 -26 -16 -11 -9 9
-13 21 -10 27 13 20 26 11 26 -16z m217 -20 c-16 -16 -17 -15 -17 17 0 32 1
33 17 17 16 -16 16 -18 0 -34z m-212 -81 l7 -43 -59 3 c-49 3 -58 6 -61 23 -1
11 12 39 30 63 l32 42 22 -22 c12 -13 25 -42 29 -66z m281 32 c36 -61 28 -76
-38 -72 l-53 3 3 40 c3 40 37 89 53 79 5 -3 21 -25 35 -50z m-231 -16 c31 -14
32 -22 1 -36 -28 -13 -36 -7 -36 25 0 27 1 27 35 11z m121 -35 c-3 -3 -17 -2
-32 1 l-27 7 29 18 c28 17 29 17 32 -1 2 -11 1 -22 -2 -25z m-37 -16 l31 -13
-23 -45 c-27 -55 -56 -62 -85 -22 -30 43 -31 65 -2 80 31 16 40 16 79 0z"/>
<path d="M1961 1054 c-26 -19 -27 -38 -1 -64 25 -25 35 -25 60 0 39 39 -13 96
-59 64z m34 -24 c3 -5 1 -10 -4 -10 -6 0 -11 5 -11 10 0 6 2 10 4 10 3 0 8 -4
11 -10z"/>
<path d="M126 1209 c-9 -45 -8 -49 9 -49 17 0 39 46 31 67 -10 24 -33 13 -40
-18z"/>
<path d="M492 1208 c-16 -16 -15 -33 1 -19 8 6 17 8 20 4 4 -3 7 1 7 10 0 20
-11 22 -28 5z"/>
<path d="M282 1182 c-11 -15 -24 -40 -27 -54 -6 -25 -9 -25 -69 -21 -49 4 -64
2 -75 -11 -18 -21 -7 -74 25 -121 l25 -37 -27 -41 c-14 -22 -29 -57 -31 -78
-5 -34 -3 -40 21 -50 20 -9 38 -10 74 -1 26 5 47 10 47 9 0 -1 11 -24 25 -52
20 -39 31 -51 52 -53 39 -5 63 12 85 59 l20 43 59 -2 c32 -1 65 2 73 7 20 13
8 75 -24 116 -14 19 -25 38 -25 44 0 6 14 32 30 58 38 60 40 100 4 109 -14 4
-46 4 -73 2 l-47 -5 -30 51 c-24 42 -35 52 -61 54 -24 2 -35 -3 -51 -26z m70
1 c18 -21 51 -83 46 -88 -2 -1 -17 -10 -34 -18 -28 -15 -34 -15 -67 1 -21 9
-37 21 -37 28 0 15 58 94 69 94 4 0 15 -8 23 -17z m182 -89 c9 -3 16 -15 16
-27 0 -22 -46 -107 -59 -107 -19 0 -51 49 -57 87 -5 35 -3 42 12 46 29 7 71 8
88 1z m-302 -49 c-4 -43 -41 -93 -61 -81 -17 11 -51 82 -51 106 0 19 5 21 58
18 l57 -3 -3 -40z m187 -22 c1 -8 -9 -7 -29 5 -36 20 -37 26 -7 39 18 9 23 7
29 -11 3 -11 6 -26 7 -33z m-135 41 c22 -9 20 -19 -9 -38 -25 -16 -25 -16 -25
14 0 31 6 35 34 24z m108 -55 c54 -38 44 -115 -20 -152 -33 -19 -33 -19 -78 4
l-45 24 3 55 c3 49 6 56 37 77 37 25 57 23 103 -8z m-162 -76 l0 -38 -19 25
c-18 22 -18 25 -3 37 10 7 18 13 20 13 1 0 2 -17 2 -37z m239 -10 c-19 -22
-29 -15 -29 19 0 30 0 31 20 13 15 -14 17 -21 9 -32z m-261 -23 c15 -12 26
-35 29 -60 5 -36 3 -40 -23 -50 -45 -18 -88 -9 -92 18 -3 22 42 112 56 112 4
-1 18 -9 30 -20z m323 -36 c31 -54 31 -58 14 -70 -22 -17 -29 -17 -78 -3 -37
10 -37 10 -31 52 6 37 34 76 56 77 3 0 21 -25 39 -56z m-229 -41 c-29 -23 -52
-16 -52 16 l0 28 34 -16 c31 -14 33 -17 18 -28z m118 12 c0 -25 -13 -31 -45
-18 -15 5 -15 8 6 24 32 25 39 24 39 -6z m-26 -84 c-30 -72 -63 -79 -101 -22
-30 45 -29 54 9 73 29 13 36 13 69 -1 l37 -16 -14 -34z"/>
<path d="M297 965 c-11 -10 -13 -23 -8 -42 10 -38 62 -45 85 -11 20 28 20 33
0 52 -20 20 -58 21 -77 1z m33 -15 c0 -5 -4 -10 -10 -10 -5 0 -10 5 -10 10 0
6 5 10 10 10 6 0 10 -4 10 -10z"/>
<path d="M1690 1130 c0 -5 5 -10 10 -10 6 0 10 5 10 10 0 6 -4 10 -10 10 -5 0
-10 -4 -10 -10z"/>
<path d="M625 1100 c-7 -12 2 -30 16 -30 5 0 9 9 9 20 0 21 -15 27 -25 10z"/>
<path d="M1640 1070 c0 -5 4 -10 9 -10 5 0 12 -8 14 -17 3 -11 5 -7 6 10 1 18
-4 27 -14 27 -8 0 -15 -4 -15 -10z"/>
<path d="M1608 1043 c7 -3 16 -2 19 1 4 3 -2 6 -13 5 -11 0 -14 -3 -6 -6z"/>
<path d="M670 1025 c-10 -12 -10 -21 -2 -40 14 -30 42 -32 66 -6 14 15 15 24
6 40 -13 25 -52 28 -70 6z"/>
<path d="M1442 964 c-35 -24 -55 -71 -47 -113 11 -58 45 -129 71 -146 32 -21
82 -19 121 5 31 19 59 57 50 67 -3 2 1 20 9 38 9 22 10 36 4 40 -6 3 -10 -2
-10 -12 0 -10 -9 -35 -19 -55 -11 -19 -17 -38 -15 -41 9 -8 -37 -34 -73 -42
-26 -5 -37 -1 -61 22 -17 15 -34 39 -38 53 -6 24 -6 24 13 8 34 -31 80 -23
124 21 51 50 54 98 10 142 -24 23 -38 29 -73 29 -24 0 -54 -7 -66 -16z m117
-30 c41 -52 18 -118 -46 -130 -32 -6 -40 -3 -60 20 -30 36 -30 80 2 111 33 34
77 33 104 -1z m62 -177 c-10 -9 -11 -8 -5 6 3 10 9 15 12 12 3 -3 0 -11 -7
-18z"/>
<path d="M850 930 c0 -11 4 -20 9 -20 5 0 7 9 4 20 -3 11 -7 20 -9 20 -2 0 -4
-9 -4 -20z"/>
<path d="M1060 915 c0 -8 5 -15 10 -15 6 0 10 7 10 15 0 8 -4 15 -10 15 -5 0
-10 -7 -10 -15z"/>
<path d="M1200 886 c0 -15 8 -30 21 -36 25 -14 41 -3 16 11 -9 6 -17 16 -17
24 0 8 -4 17 -10 20 -6 3 -10 -5 -10 -19z"/>
<path d="M1181 884 c0 -11 3 -14 6 -6 3 7 2 16 -1 19 -3 4 -6 -2 -5 -13z"/>
<path d="M863 860 c16 -13 27 -31 27 -45 0 -35 10 -55 27 -55 12 0 14 7 9 32
-8 39 -21 55 -60 74 l-31 15 28 -21z"/>
<path d="M1010 855 c0 -8 2 -15 4 -15 2 0 6 7 10 15 3 8 1 15 -4 15 -6 0 -10
-7 -10 -15z"/>
<path d="M1270 860 c0 -5 5 -10 10 -10 6 0 10 5 10 10 0 6 -4 10 -10 10 -5 0
-10 -4 -10 -10z"/>
<path d="M677 803 c7 -49 13 -55 13 -15 0 18 0 35 1 39 0 4 -4 9 -10 11 -6 2
-8 -11 -4 -35z"/>
<path d="M737 796 c10 -13 22 -22 26 -19 9 6 -21 43 -35 43 -5 0 -1 -11 9 -24z"/>
<path d="M1080 771 c0 -11 4 -22 9 -25 4 -3 6 6 3 19 -5 30 -12 33 -12 6z"/>
<path d="M1122 765 c0 -16 2 -22 5 -12 2 9 2 23 0 30 -3 6 -5 -1 -5 -18z"/>
<path d="M2127 736 c-3 -8 -2 -18 4 -22 16 -9 22 2 11 21 -8 15 -10 16 -15 1z"/>
<path d="M853 730 c-25 -10 -28 -25 -13 -65 9 -23 14 -26 52 -23 39 3 43 6 46
31 4 32 -22 67 -47 66 -9 0 -26 -4 -38 -9z m55 -27 c-4 -20 -18 -26 -37 -14
-18 12 -5 31 20 31 14 0 19 -6 17 -17z"/>
<path d="M1761 680 c-23 -63 -24 -82 -1 -55 18 22 46 19 64 -7 9 -12 16 -18
16 -13 0 14 -40 119 -49 128 -4 4 -18 -20 -30 -53z m32 -28 c-20 -5 -22 -1
-15 33 l5 30 13 -30 c10 -25 10 -31 -3 -33z"/>
<path d="M2190 725 c0 -8 2 -15 4 -15 2 0 6 7 10 15 3 8 1 15 -4 15 -6 0 -10
-7 -10 -15z"/>
<path d="M1955 705 c6 -2 22 -6 38 -9 16 -4 27 -13 28 -24 0 -11 2 -12 6 -4 8
21 -17 42 -51 41 -17 0 -26 -2 -21 -4z"/>
<path d="M485 680 c-11 -17 5 -32 21 -19 7 6 11 15 8 20 -7 12 -21 11 -29 -1z"/>
<path d="M584 665 c-8 -19 2 -45 16 -45 5 0 10 14 10 30 0 31 -16 41 -26 15z"/>
<path d="M712 650 c0 -14 2 -19 5 -12 2 6 2 18 0 25 -3 6 -5 1 -5 -13z"/>
<path d="M153 645 c0 -8 4 -12 9 -9 4 3 8 9 8 15 0 5 -4 9 -8 9 -5 0 -9 -7 -9
-15z"/>
<path d="M1040 645 c0 -10 7 -15 18 -13 21 4 19 22 -2 26 -10 2 -16 -3 -16
-13z"/>
<path d="M1170 640 c0 -5 5 -10 10 -10 6 0 10 5 10 10 0 6 -4 10 -10 10 -5 0
-10 -4 -10 -10z"/>
<path d="M500 620 c0 -5 4 -10 9 -10 6 0 13 5 16 10 3 6 -1 10 -9 10 -9 0 -16
-4 -16 -10z"/>
<path d="M1958 613 c6 -2 18 -2 25 0 6 3 1 5 -13 5 -14 0 -19 -2 -12 -5z"/>
<path d="M255 589 c-10 -15 3 -25 16 -12 7 7 7 13 1 17 -6 3 -14 1 -17 -5z"/>
<path d="M105 580 c-3 -5 -1 -10 4 -10 6 0 11 5 11 10 0 6 -2 10 -4 10 -3 0
-8 -4 -11 -10z"/>
<path d="M1230 520 c-11 -7 -12 -12 -4 -20 8 -8 13 -6 17 9 3 12 4 21 4 21 -1
0 -9 -5 -17 -10z"/>
<path d="M1061 504 c0 -11 3 -14 6 -6 3 7 2 16 -1 19 -3 4 -6 -2 -5 -13z"/>
<path d="M1081 504 c0 -11 3 -14 6 -6 3 7 2 16 -1 19 -3 4 -6 -2 -5 -13z"/>
<path d="M1100 505 c0 -8 5 -15 10 -15 6 0 10 7 10 15 0 8 -4 15 -10 15 -5 0
-10 -7 -10 -15z"/>
<path d="M1130 505 c0 -8 2 -15 4 -15 2 0 6 7 10 15 3 8 1 15 -4 15 -6 0 -10
-7 -10 -15z"/>
<path d="M1161 504 c0 -11 3 -14 6 -6 3 7 2 16 -1 19 -3 4 -6 -2 -5 -13z"/>
<path d="M1181 504 c0 -11 3 -14 6 -6 3 7 2 16 -1 19 -3 4 -6 -2 -5 -13z"/>
<path d="M183 503 c42 -2 112 -2 155 0 42 1 7 3 -78 3 -85 0 -120 -2 -77 -3z"/>
<path d="M572 503 c48 -2 129 -2 180 0 51 1 12 3 -87 3 -99 0 -141 -2 -93 -3z"/>
<path d="M888 503 c23 -2 61 -2 85 0 23 2 4 4 -43 4 -47 0 -66 -2 -42 -4z"/>
<path d="M2178 503 c6 -2 18 -2 25 0 6 3 1 5 -13 5 -14 0 -19 -2 -12 -5z"/>
<path d="M635 269 l0 -111 44 6 c24 3 53 6 63 6 11 0 33 13 49 29 23 24 29 38
29 74 0 28 -7 53 -17 66 -19 23 -75 40 -133 41 l-35 0 0 -111z m129 45 c38
-37 3 -104 -54 -104 l-30 0 0 60 0 60 34 0 c19 0 42 -7 50 -16z"/>
<path d="M960 368 c0 -7 12 -54 26 -104 19 -67 31 -94 44 -97 15 -4 22 7 36
59 11 35 21 64 25 64 3 0 12 -25 19 -56 9 -35 20 -58 29 -61 9 -2 20 -5 25 -6
4 -1 19 34 32 78 14 44 28 92 33 106 8 23 6 25 -14 21 -25 -4 -54 -61 -56
-105 0 -21 -1 -21 -9 -2 -5 11 -16 41 -26 67 -14 41 -19 46 -35 38 -10 -6 -26
-35 -36 -66 -19 -61 -18 -61 -43 34 -8 31 -16 42 -30 42 -11 0 -20 -5 -20 -12z"/>
<path d="M1280 275 c0 -98 1 -105 20 -105 17 0 20 7 20 40 l0 40 45 0 45 0 0
-39 c0 -34 12 -51 36 -51 2 0 4 50 4 110 0 103 -1 110 -20 110 -17 0 -20 -7
-20 -40 l0 -40 -45 0 -45 0 0 40 c0 33 -3 40 -20 40 -19 0 -20 -7 -20 -105z"/>
<path d="M1510 275 c0 -98 1 -105 20 -105 19 0 20 7 20 105 0 98 -1 105 -20
105 -19 0 -20 -7 -20 -105z"/>
<path d="M1600 355 c0 -21 5 -25 30 -25 l30 0 0 -80 c0 -73 2 -80 20 -80 17 0
19 8 22 83 3 81 3 82 31 85 19 2 27 9 27 23 0 17 -8 19 -80 19 -79 0 -80 0
-80 -25z"/>
<path d="M1810 275 l0 -105 75 0 c68 0 75 2 75 20 0 18 -7 20 -55 20 -48 0
-55 2 -55 20 0 17 7 20 45 20 38 0 45 3 45 20 0 17 -7 20 -45 20 -41 0 -45 2
-45 25 0 24 3 25 55 25 48 0 55 2 55 20 0 18 -7 20 -75 20 l-75 0 0 -105z"/>
<path d="M318 276 c-21 -52 -38 -99 -38 -103 0 -20 41 -8 46 14 5 20 13 23 50
23 38 0 44 -3 50 -25 7 -26 9 -28 36 -17 14 6 11 19 -25 105 -55 131 -68 131
-119 3z m82 -18 c0 -5 -11 -8 -25 -8 -29 0 -29 0 -13 35 l12 26 13 -23 c7 -13
12 -26 13 -30z"/>
<path d="M130 286 c0 -9 5 -16 10 -16 6 0 10 4 10 9 0 6 -4 13 -10 16 -5 3
-10 -1 -10 -9z"/>
<path d="M2150 271 c0 -12 5 -21 10 -21 6 0 10 6 10 14 0 8 -4 18 -10 21 -5 3
-10 -3 -10 -14z"/>
<path d="M2161 174 c0 -11 3 -14 6 -6 3 7 2 16 -1 19 -3 4 -6 -2 -5 -13z"/>
</g>
</svg>
