<?xml version="1.0" standalone="no"?>
<!DOCTYPE svg PUBLIC "-//W3C//DTD SVG 20010904//EN"
 "http://www.w3.org/TR/2001/REC-SVG-20010904/DTD/svg10.dtd">
<svg version="1.0" xmlns="http://www.w3.org/2000/svg"
 width="337.000000pt" height="357.000000pt" viewBox="0 0 337.000000 357.000000"
 preserveAspectRatio="xMidYMid meet">

<g transform="translate(0.000000,357.000000) scale(0.100000,-0.100000)"
fill="#000000" stroke="none">
<path d="M0 1785 l0 -1785 1685 0 1685 0 0 1785 0 1785 -1685 0 -1685 0 0
-1785z m1210 1163 c0 -12 -60 -239 -68 -259 -9 -21 -15 -25 -40 -21 -37 5 -89
-22 -104 -53 -6 -14 -14 -25 -18 -25 -17 0 -33 -111 -25 -172 4 -35 9 -76 10
-93 7 -84 42 -185 66 -185 6 0 9 -16 7 -37 l-4 -38 -115 -1 -116 -1 -1 34 c-1
18 -6 70 -12 116 -14 107 -25 400 -16 423 6 16 8 16 16 4 6 -8 10 -28 10 -44
0 -43 14 -17 19 37 1 4 4 6 9 6 20 -3 33 2 27 11 -4 6 -11 8 -16 5 -5 -4 -9
-2 -9 4 0 6 10 16 23 22 12 7 25 17 29 23 5 6 8 1 8 -12 0 -22 1 -22 16 -7 13
13 29 15 85 9 49 -5 69 -3 69 5 0 6 -10 11 -22 11 -33 1 -130 34 -122 42 3 4
52 5 108 2 107 -6 115 5 18 25 -30 6 -60 18 -68 25 -12 13 -5 14 54 9 114 -8
132 -7 132 7 0 5 -15 12 -32 15 -61 11 -73 13 -80 14 -5 1 -8 6 -8 11 0 6 22
10 49 10 28 0 53 5 56 10 4 6 11 8 16 5 5 -4 9 1 9 9 0 9 -6 13 -14 10 -8 -3
-16 3 -19 15 -5 22 7 29 19 10 5 -8 10 -6 16 5 7 13 38 24 38 14z m-95 -28 c3
-5 -3 -10 -14 -10 -12 0 -21 5 -21 10 0 6 6 10 14 10 8 0 18 -4 21 -10z m-95
-60 c13 -8 13 -10 -2 -10 -9 0 -20 5 -23 10 -8 13 5 13 25 0z m1710 -361 c0
-6 -4 -7 -10 -4 -5 3 -10 11 -10 16 0 6 5 7 10 4 6 -3 10 -11 10 -16z m-2000
-9 c0 -5 -2 -10 -4 -10 -3 0 -8 5 -11 10 -3 6 -1 10 4 10 6 0 11 -4 11 -10z
m1 -57 c0 -16 2 -36 4 -46 2 -10 7 -80 11 -155 3 -76 10 -144 15 -153 10 -20
-7 -39 -36 -39 -11 0 -43 -14 -72 -30 -49 -28 -72 -50 -187 -175 -48 -52 -65
-60 -21 -9 14 16 39 50 56 77 17 26 35 47 40 47 5 0 9 11 9 25 0 14 5 24 12
23 7 -2 14 7 16 20 4 23 -13 31 -21 10 -3 -7 -4 -3 -4 9 1 12 4 20 8 17 4 -2
10 0 14 6 4 6 11 8 16 5 5 -4 9 1 9 10 0 8 -10 19 -22 24 -20 7 -20 8 -2 15
12 5 23 2 30 -9 8 -11 14 -12 19 -5 3 5 11 8 16 5 5 -4 6 2 2 11 -4 11 -8 13
-11 6 -5 -16 -23 -16 -19 0 3 19 29 36 45 30 8 -3 18 1 23 9 6 10 9 10 9 2 0
-7 10 -13 23 -13 22 1 21 1 -5 25 -24 21 -27 30 -26 82 0 32 5 63 10 70 5 6
11 24 14 40 3 15 7 36 10 47 4 12 2 16 -5 12 -13 -8 -14 -4 -5 18 10 25 24 19
25 -11z m2015 -38 c7 -9 17 -14 24 -13 12 3 16 -5 27 -62 3 -18 12 -30 22 -31
14 -1 13 -2 -1 -6 -10 -2 -18 -8 -18 -11 1 -12 24 -38 40 -45 8 -4 3 -5 -12
-2 -16 3 -28 1 -28 -5 0 -5 9 -10 20 -10 11 0 20 -6 20 -14 0 -9 7 -12 20 -9
16 4 20 0 20 -21 0 -14 -4 -26 -9 -26 -13 0 -8 -25 8 -44 11 -13 11 -19 1 -31
-6 -8 -9 -23 -5 -36 6 -17 9 -18 16 -8 4 7 12 10 16 5 4 -4 0 -13 -10 -20 -22
-17 -22 -26 1 -27 15 -1 15 -2 0 -6 -24 -6 -29 -30 -11 -49 16 -15 16 -18 -3
-33 -19 -16 -27 -34 -41 -103 -4 -23 -1 -29 18 -37 13 -5 27 -7 32 -4 4 2 7
-1 7 -6 0 -6 -4 -11 -10 -11 -5 0 -10 -7 -10 -15 0 -8 7 -15 15 -15 8 0 15 -5
15 -11 0 -6 -7 -9 -15 -5 -10 4 -14 -1 -13 -17 1 -12 -2 -33 -6 -47 -6 -19 -5
-21 3 -10 8 11 11 12 11 2 0 -7 5 -10 10 -7 6 3 10 1 10 -4 0 -6 -4 -11 -10
-11 -5 0 -7 -7 -4 -15 3 -8 9 -14 12 -13 20 2 32 -3 27 -11 -3 -5 4 -12 15
-16 45 -14 15 -23 -62 -18 -199 11 -614 56 -626 67 -7 7 21 60 55 106 21 27
57 77 81 110 28 38 51 60 63 60 25 0 48 45 31 62 -16 16 -15 45 1 55 15 10 33
37 53 83 39 88 59 128 84 165 38 59 50 91 50 139 0 23 3 45 6 49 10 10 48 -2
60 -18z m-2109 -17 c-3 -8 -6 -5 -6 6 -1 11 2 17 5 13 3 -3 4 -12 1 -19z m0
-70 c-2 -13 -4 -5 -4 17 -1 22 1 32 4 23 2 -10 2 -28 0 -40z m-257 -102 c0 -3
-4 -8 -10 -11 -5 -3 -10 -1 -10 4 0 6 5 11 10 11 6 0 10 -2 10 -4z m1620 -176
c0 -5 -4 -10 -10 -10 -5 0 -10 5 -10 10 0 6 5 10 10 10 6 0 10 -4 10 -10z
m389 -192 c-7 -13 -14 -18 -16 -11 -3 7 1 22 8 35 7 13 14 18 16 11 3 -7 -1
-22 -8 -35z m196 -325 c99 -9 185 -20 190 -26 7 -7 6 -8 -2 -3 -8 4 -13 1 -13
-8 0 -9 4 -16 10 -16 5 0 7 -7 4 -15 -8 -20 -24 -9 -24 17 0 21 -1 20 -20 -3
-13 -15 -20 -34 -18 -52 3 -26 8 -30 38 -33 84 -8 98 -14 93 -34 -3 -11 -12
-20 -19 -20 -9 0 -14 -11 -14 -27 0 -46 -14 -57 -69 -57 -28 0 -51 -4 -51 -9
0 -4 5 -5 10 -2 6 3 10 1 10 -4 0 -6 -7 -11 -15 -11 -8 0 -15 7 -15 15 0 8 -7
15 -15 15 -9 0 -12 -6 -9 -17 5 -17 5 -17 -9 0 -8 10 -26 16 -43 16 -24 -1
-25 -3 -6 -6 12 -2 22 -9 22 -15 0 -5 -7 -8 -15 -4 -11 4 -15 -2 -15 -24 0
-22 -5 -30 -17 -30 -17 -1 -17 -1 0 -11 9 -5 17 -21 17 -33 0 -23 -2 -24 -76
-19 -61 4 -75 2 -72 -9 3 -7 13 -12 23 -10 9 2 14 -1 11 -7 -4 -5 -2 -12 3
-16 5 -3 13 1 18 9 6 11 19 13 51 9 40 -5 60 -23 26 -23 -8 0 -12 -5 -9 -10 4
-6 10 -8 15 -5 5 3 11 1 15 -5 3 -6 -1 -13 -11 -17 -15 -5 -14 -8 7 -16 16 -6
19 -11 11 -14 -10 -4 -5 -11 15 -24 15 -10 24 -19 18 -19 -9 0 -47 23 -152 91
-18 12 -33 25 -33 30 0 4 -20 20 -45 35 -50 29 -53 41 -8 29 15 -5 33 -7 38
-6 6 2 33 3 60 3 l50 0 -35 13 c-19 7 -38 10 -42 8 -5 -2 -8 0 -8 6 0 5 6 11
13 14 6 2 3 3 -8 1 -13 -2 -28 6 -39 21 -10 14 -26 26 -35 26 -9 1 -2 4 14 8
17 3 30 13 30 21 0 12 -24 17 -115 23 -63 5 -116 10 -118 12 -2 2 5 18 15 37
13 23 18 57 19 118 1 47 2 91 3 99 1 14 17 14 346 -16z m-336 -282 c21 -12 86
-71 77 -71 -4 0 -23 11 -44 24 -56 35 -83 73 -33 47z"/>
<path d="M905 2663 c-30 -7 -42 -23 -19 -24 68 -5 86 -4 90 3 4 6 -42 31 -49
27 -1 -1 -11 -3 -22 -6z"/>
<path d="M910 2580 c0 -5 9 -10 19 -10 11 0 23 5 26 10 4 6 -5 10 -19 10 -14
0 -26 -4 -26 -10z"/>
<path d="M930 2300 c0 -5 5 -10 10 -10 6 0 10 5 10 10 0 6 -4 10 -10 10 -5 0
-10 -4 -10 -10z"/>
<path d="M928 2233 c6 -2 18 -2 25 0 6 3 1 5 -13 5 -14 0 -19 -2 -12 -5z"/>
<path d="M625 2067 c11 -9 15 -19 10 -27 -5 -9 -4 -11 3 -6 17 10 15 33 -4 40
-25 10 -29 7 -9 -7z"/>
<path d="M592 2034 c13 -27 15 -27 20 0 2 12 -3 20 -14 21 -14 3 -15 -1 -6
-21z"/>
<path d="M2770 2316 c0 -9 5 -16 10 -16 6 0 10 4 10 9 0 6 -4 13 -10 16 -5 3
-10 -1 -10 -9z"/>
<path d="M2680 1774 c0 -14 4 -23 9 -20 5 3 7 15 4 26 -7 28 -13 25 -13 -6z"/>
<path d="M2680 1429 c0 -5 5 -7 10 -4 6 3 10 8 10 11 0 2 -4 4 -10 4 -5 0 -10
-5 -10 -11z"/>
<path d="M2490 1200 c0 -5 18 -10 41 -10 24 0 38 4 34 10 -3 6 -22 10 -41 10
-19 0 -34 -4 -34 -10z"/>
<path d="M2515 1160 c3 -5 10 -10 16 -10 5 0 9 5 9 10 0 6 -7 10 -16 10 -8 0
-12 -4 -9 -10z"/>
<path d="M2511 1044 c0 -11 3 -14 6 -6 3 7 2 16 -1 19 -3 4 -6 -2 -5 -13z"/>
</g>
</svg>
